<?xml version="1.0" encoding="UTF-8"?>
<svg width="752pt" height="752pt" version="1.1" viewBox="0 0 752 752" xmlns="http://www.w3.org/2000/svg">
 <g fill="#fff">
  <path d="m591.01 286.97c-57.305-57.305-133.55-89.035-215.01-89.035s-157.7 31.73-215 89.035c-13.262 13.262-13.262 34.098 0 47.359 6.6289 6.6289 15.156 9.9453 23.68 9.9453 8.5234 0 17.051-3.3164 23.68-9.9453 44.516-44.992 104.19-69.617 167.64-69.617 63.461 0 123.13 24.625 167.65 69.617 13.262 13.262 34.098 13.262 47.359 0 13.258-13.262 13.258-34.574 0-47.359z"/>
  <path d="m250.03 376.48c-13.262 13.262-13.262 34.098 0 47.359 6.6289 6.6289 15.156 9.9453 23.68 9.9453 8.5234 0 17.051-3.3164 23.68-9.9453 43.57-43.57 114.13-43.57 157.23-0.47266 12.785 13.262 34.098 13.262 47.359 0 13.262-13.262 13.262-34.098 0-47.359-69.617-69.145-182.33-69.145-251.95 0.47266z"/>
  <path d="m428.57 501.97c0 28.773-23.324 52.094-52.094 52.094-28.773 0-52.094-23.32-52.094-52.094 0-28.77 23.32-52.094 52.094-52.094 28.77 0 52.094 23.324 52.094 52.094"/>
 </g>
</svg>
